<svg width="130" height="130" viewBox="0 0 130 130" fill="none" xmlns="http://www.w3.org/2000/svg">
<path id="Vector" d="M128 128V129.5H129.5V128H128ZM128 2H129.5V0.5H128V2ZM65.0012 96.5006H66.5012V95.0006H65.0012V96.5006ZM33.4994 96.5006L32.0764 96.0262L31.4182 98.0006H33.4994V96.5006ZM2 2V0.5H0.5V2H2ZM2 128H0.5V129.5H2V128ZM105.542 109.188H107.042V107.688H105.542V109.188ZM105.542 116.187V117.687H107.042V116.187H105.542ZM39.4518 116.187H37.9518V117.687H39.4518V116.187ZM39.4518 109.188V107.688H37.9518V109.188H39.4518ZM121.462 82.7033H119.962H121.462ZM104.959 66.2001V64.7001H103.459V66.2001H104.959ZM104.959 99.2088H103.459V100.709L104.959 100.709L104.959 99.2088ZM76.9037 95.9176V97.4176H78.4037V95.9176H76.9037ZM52.2688 95.9176H50.7688V97.4176H52.2688V95.9176ZM37.8546 13.4333C38.529 12.9522 38.6856 12.0154 38.2045 11.3411C37.7234 10.6667 36.7866 10.51 36.1123 10.9911L37.8546 13.4333ZM23.2919 21.9801L22.4207 20.759L22.01 21.052L21.8599 21.5336L23.2919 21.9801ZM17.6213 35.1288C17.3747 35.9197 17.8159 36.7607 18.6068 37.0073C19.3977 37.2538 20.2387 36.8126 20.4853 36.0217L17.6213 35.1288ZM26.3911 9.68062C26.8742 9.00768 26.7204 8.07048 26.0474 7.58732C25.3745 7.10417 24.4373 7.25802 23.9541 7.93096L26.3911 9.68062ZM18.308 18.3668L17.0896 17.492L16.8614 17.8098L16.8175 18.1987L18.308 18.3668ZM14.5559 38.2493C14.4631 39.0725 15.0552 39.8151 15.8784 39.908C16.7016 40.0009 17.4442 39.4088 17.537 38.5856L14.5559 38.2493ZM14.4996 12.4186C14.6136 11.598 14.0408 10.8404 13.2202 10.7265C12.3997 10.6125 11.6421 11.1853 11.5281 12.0059L14.4996 12.4186ZM12.1088 18.7288L10.623 18.5225L10.601 18.681L10.6129 18.8406L12.1088 18.7288ZM13.524 37.6769L15.0239 37.6619L15.0234 37.6135L15.0198 37.5652L13.524 37.6769ZM12.9268 127.848C12.9351 128.676 13.6134 129.341 14.4418 129.333C15.2701 129.325 15.935 128.646 15.9267 127.818L12.9268 127.848ZM41.1868 49.7422C41.3598 48.9321 40.8433 48.1351 40.0331 47.962C39.223 47.789 38.4259 48.3055 38.2529 49.1157L41.1868 49.7422ZM38.4917 43.2029C38.7197 43.9994 39.5501 44.4602 40.3466 44.2322C41.143 44.0042 41.6038 43.1737 41.3758 42.3773L38.4917 43.2029ZM96.9167 74.3271L97.9572 75.4076L98.957 74.4447L98.0745 73.3734L96.9167 74.3271ZM55.6235 74.3436L54.4637 73.3923L53.5512 74.505L54.6251 75.463L55.6235 74.3436ZM67.5942 65.4102L69.0014 65.9295L70.2126 62.6472L67.0001 64.0329L67.5942 65.4102ZM71.4496 78.601L70.6299 79.8572L70.6399 79.8637L71.4496 78.601ZM82.6751 77.8957L81.7218 76.7376L81.7137 76.7444L82.6751 77.8957ZM85.576 65.6712L86.1906 64.3029L82.897 62.8236L84.1728 66.2012L85.576 65.6712ZM80.6251 70.0485L82.1249 70.0726L80.6251 70.0485ZM72.4699 70.1049L70.9706 70.1498L72.4699 70.1049ZM104.343 49.4666L105.384 50.5471L106.383 49.5848L105.501 48.5134L104.343 49.4666ZM63.05 49.4807L61.8904 48.5291L60.9774 49.6418L62.0514 50.6L63.05 49.4807ZM75.0183 40.5473L76.4258 41.0659L77.6354 37.7826L74.4234 39.1704L75.0183 40.5473ZM78.8761 53.7405L78.0566 54.9969L78.0663 55.0031L78.8761 53.7405ZM90.0991 53.0352L89.1462 51.8768L89.1377 51.8839L90.0991 53.0352ZM93.0002 40.8106L93.6138 39.4419L90.3204 37.9653L91.5971 41.3413L93.0002 40.8106ZM88.0515 45.188L89.5513 45.2121L88.0515 45.188ZM79.8963 45.2444L78.397 45.2893L79.8963 45.2444ZM108.732 24.6061L109.773 25.6866L110.773 24.7232L109.889 23.6516L108.732 24.6061ZM67.4367 24.6201L66.2772 23.6686L65.3639 24.7814L66.4383 25.7396L67.4367 24.6201ZM79.4074 15.6868L80.8148 16.2057L82.0103 12.9629L78.8251 14.3044L79.4074 15.6868ZM83.2628 28.8799L82.443 30.1362L82.4528 30.1425L83.2628 28.8799ZM94.4882 28.1747L93.5357 27.0159L93.5266 27.0235L94.4882 28.1747ZM97.3892 15.9642L98.0022 14.5952L94.7058 13.1192L95.9867 16.4962L97.3892 15.9642ZM92.4383 20.3275L93.9381 20.3516L92.4383 20.3275ZM84.2831 20.3839L82.7837 20.4287L84.2831 20.3839ZM65.0012 129.5H128V126.5H65.0012V129.5ZM129.5 128V2H126.5V128H129.5ZM128 0.5H65.0012V3.5H128V0.5ZM66.5012 109.188V96.5006H63.5012V109.188H66.5012ZM65.0012 95.0006H33.4994V98.0006H65.0012V95.0006ZM34.9224 96.975L66.4242 2.47436L63.5782 1.52564L32.0764 96.0262L34.9224 96.975ZM65.0012 0.5H2V3.5H65.0012V0.5ZM0.5 2V128H3.5V2H0.5ZM2 129.5H65.0012V126.5H2V129.5ZM66.5012 128V116.187H63.5012V128H66.5012ZM65.0012 110.688H105.542V107.688H65.0012V110.688ZM104.042 109.188V116.187H107.042V109.188H104.042ZM105.542 114.687H65.0012V117.687H105.542V114.687ZM65.0012 114.687H39.4518V117.687H65.0012V114.687ZM40.9518 116.187V109.188H37.9518V116.187H40.9518ZM39.4518 110.688H65.0012V107.688H39.4518V110.688ZM122.962 82.7033C122.962 77.9285 121.065 73.3494 117.689 69.9731L115.568 72.0945C118.382 74.9081 119.962 78.7242 119.962 82.7033H122.962ZM117.689 69.9731C114.313 66.5969 109.734 64.7001 104.959 64.7001V67.7001C108.938 67.7001 112.754 69.2808 115.568 72.0945L117.689 69.9731ZM103.459 66.2001V99.2088H106.459V66.2001H103.459ZM104.959 100.709C109.734 100.708 114.313 98.8108 117.689 95.4342L115.568 93.313C112.754 96.1271 108.938 97.7082 104.959 97.7088L104.959 100.709ZM117.689 95.4342C121.066 92.0576 122.962 87.4782 122.962 82.7033H119.962C119.962 86.6826 118.382 90.499 115.568 93.313L117.689 95.4342ZM78.4037 95.9176C78.4037 93.2177 76.5606 90.8651 74.1151 89.2701C71.6239 87.6451 68.2552 86.615 64.5851 86.615V89.615C67.7184 89.615 70.509 90.4997 72.4762 91.7828C74.4891 93.0958 75.4037 94.6445 75.4037 95.9176H78.4037ZM64.5851 86.615C60.915 86.615 57.5468 87.6451 55.056 89.2702C52.611 90.8654 50.7688 93.218 50.7688 95.9176H53.7688C53.7688 94.6442 54.6831 93.0955 56.6953 91.7827C58.6618 90.4997 61.4517 89.615 64.5851 89.615V86.615ZM52.2688 97.4176H76.9037V94.4176H52.2688V97.4176ZM36.1123 10.9911L22.4207 20.759L24.1631 23.2012L37.8546 13.4333L36.1123 10.9911ZM21.8599 21.5336L17.6213 35.1288L20.4853 36.0217L24.7239 22.4266L21.8599 21.5336ZM23.9541 7.93096L17.0896 17.492L19.5265 19.2416L26.3911 9.68062L23.9541 7.93096ZM16.8175 18.1987L14.5559 38.2493L17.537 38.5856L19.7986 18.5349L16.8175 18.1987ZM11.5281 12.0059L10.623 18.5225L13.5945 18.9352L14.4996 12.4186L11.5281 12.0059ZM10.6129 18.8406L12.0282 37.7886L15.0198 37.5652L13.6046 18.6171L10.6129 18.8406ZM12.0241 37.6919L12.9268 127.848L15.9267 127.818L15.0239 37.6619L12.0241 37.6919ZM38.2529 49.1157C37.5733 52.2982 36.6654 54.8403 35.2145 56.5807C33.8372 58.2328 31.8623 59.2908 28.6707 59.2908V62.2908C32.654 62.2908 35.5113 60.9097 37.5188 58.5018C39.4525 56.1822 40.4818 53.0435 41.1868 49.7422L38.2529 49.1157ZM28.6707 59.2908C21.233 59.2908 15.3155 53.5312 15.3155 46.5632H12.3155C12.3155 55.3086 19.6993 62.2908 28.6707 62.2908V59.2908ZM15.3155 46.5632C15.3155 39.595 21.2333 33.8334 28.6707 33.8334V30.8334C19.699 30.8334 12.3155 37.8182 12.3155 46.5632H15.3155ZM28.6707 33.8334C31.7188 33.8334 33.6922 34.7993 35.1256 36.3275C36.6226 37.9236 37.6485 40.2575 38.4917 43.2029L41.3758 42.3773C40.4935 39.295 39.3072 36.4006 37.3137 34.2752C35.2567 32.082 32.4614 30.8334 28.6707 30.8334V33.8334ZM95.8762 73.2467C84.8391 83.8759 68.5288 83.845 56.622 73.2242L54.6251 75.463C67.6188 87.0533 85.7112 87.201 97.9572 75.4076L95.8762 73.2467ZM56.7834 75.2948C59.8417 71.5657 63.5709 68.7793 68.1883 66.7876L67.0001 64.0329C61.96 66.2069 57.8374 69.2789 54.4637 73.3923L56.7834 75.2948ZM66.1869 64.891C65.1074 67.8166 64.7709 70.6481 65.4831 73.2559C66.2025 75.8902 67.9387 78.101 70.6299 79.8572L72.2694 77.3448C70.0684 75.9085 68.8672 74.2603 68.3771 72.4656C67.8797 70.6443 68.0615 68.4768 69.0014 65.9295L66.1869 64.891ZM70.6399 79.8637C72.6113 81.1279 74.9345 81.7304 77.2719 81.5836L77.0838 78.5895C75.3835 78.6963 73.6935 78.258 72.2594 77.3383L70.6399 79.8637ZM77.2719 81.5836C79.6092 81.4367 81.8388 80.5482 83.6365 79.0471L81.7137 76.7444C80.406 77.8363 78.7841 78.4827 77.0838 78.5895L77.2719 81.5836ZM83.6284 79.0539C85.8009 77.2656 87.1981 75.153 87.7489 72.7335C88.2961 70.3295 87.9736 67.7735 86.9793 65.1412L84.1728 66.2012C85.0193 68.4422 85.2068 70.3846 84.8237 72.0676C84.4441 73.7352 83.4705 75.2981 81.7218 76.7376L83.6284 79.0539ZM84.9615 67.0395C89.1468 68.9193 92.8418 71.7396 95.7589 75.2808L98.0745 73.3734C94.8638 69.4758 90.797 66.3718 86.1906 64.3029L84.9615 67.0395ZM79.1253 70.0244C79.1145 70.698 78.8405 71.3406 78.362 71.8148L80.4736 73.9458C81.5088 72.92 82.1015 71.5298 82.1249 70.0726L79.1253 70.0244ZM78.362 71.8148C77.8834 72.2889 77.2383 72.557 76.5647 72.5617L76.5854 75.5616C78.0428 75.5515 79.4383 74.9716 80.4736 73.9458L78.362 71.8148ZM76.5647 72.5617C75.8911 72.5664 75.2423 72.3072 74.7573 71.8397L72.6754 73.9997C73.7247 75.0111 75.1281 75.5717 76.5854 75.5616L76.5647 72.5617ZM74.7573 71.8397C74.2722 71.3722 73.9894 70.7335 73.9692 70.0601L70.9706 70.1498C71.0142 71.6065 71.626 72.9883 72.6754 73.9997L74.7573 71.8397ZM73.9692 70.0601C73.959 69.7166 74.0174 69.3745 74.1412 69.054L71.3427 67.9732C71.0749 68.6667 70.9483 69.4067 70.9706 70.1498L73.9692 70.0601ZM74.1412 69.054C74.265 68.7334 74.4517 68.4408 74.6901 68.1934L72.5301 66.1115C72.0142 66.6467 71.6105 67.2797 71.3427 67.9732L74.1412 69.054ZM74.6901 68.1934C74.9286 67.946 75.2141 67.7487 75.5299 67.6132L74.3468 64.8563C73.6637 65.1495 73.046 65.5762 72.5301 66.1115L74.6901 68.1934ZM75.5299 67.6132C75.8457 67.4777 76.1854 67.4066 76.529 67.4043L76.5083 64.4043C75.7649 64.4095 75.03 64.5631 74.3468 64.8563L75.5299 67.6132ZM76.529 67.4043C76.8727 67.4019 77.2133 67.4682 77.5309 67.5993L78.6757 64.8264C77.9886 64.5427 77.2517 64.3992 76.5083 64.4043L76.529 67.4043ZM77.5309 67.5993C77.8485 67.7305 78.1368 67.9238 78.3787 68.1679L80.5097 66.0563C79.9864 65.5282 79.3629 65.11 78.6757 64.8264L77.5309 67.5993ZM78.3787 68.1679C78.6205 68.412 78.8112 68.702 78.9394 69.0208L81.7227 67.9014C81.4454 67.2117 81.0329 66.5843 80.5097 66.0563L78.3787 68.1679ZM78.9394 69.0208C79.0676 69.3396 79.1308 69.6808 79.1253 70.0244L82.1249 70.0726C82.1369 69.3293 82.0001 68.5911 81.7227 67.9014L78.9394 69.0208ZM103.303 48.3861C92.2633 59.0154 75.9553 58.9844 64.0486 48.3614L62.0514 50.6C75.0451 62.1928 93.1352 62.3404 105.384 50.5471L103.303 48.3861ZM64.2095 50.4322C67.268 46.7053 70.9976 43.9185 75.6132 41.9243L74.4234 39.1704C69.3863 41.3466 65.2639 44.4183 61.8904 48.5291L64.2095 50.4322ZM73.6108 40.0288C72.5327 42.9551 72.1962 45.787 72.9083 48.395C73.6277 51.0297 75.364 53.2406 78.0566 54.9968L79.6955 52.4841C77.4936 51.0479 76.2925 49.3997 75.8024 47.6048C75.305 45.7832 75.4868 43.6148 76.4258 41.0659L73.6108 40.0288ZM78.0663 55.0031C80.0374 56.2672 82.3602 56.8696 84.6972 56.7227L84.509 53.7286C82.8092 53.8354 81.1195 53.3973 79.6858 52.4778L78.0663 55.0031ZM84.6972 56.7227C87.0341 56.5759 89.2633 55.6874 91.0606 54.1866L89.1377 51.8839C87.8304 52.9756 86.2089 53.6218 84.509 53.7286L84.6972 56.7227ZM91.0521 54.1936C93.2258 52.4054 94.6239 50.2927 95.1747 47.873C95.7221 45.4687 95.3987 42.9125 94.4032 40.28L91.5971 41.3413C92.4446 43.5822 92.6326 45.5244 92.2496 47.2071C91.87 48.8743 90.8961 50.4373 89.1462 51.8768L91.0521 54.1936ZM92.3865 42.1794C96.5733 44.0565 100.269 46.8769 103.185 50.4198L105.501 48.5134C102.292 44.6132 98.223 41.5084 93.6138 39.4419L92.3865 42.1794ZM86.5517 45.1639C86.5409 45.8375 86.2669 46.4801 85.7884 46.9542L87.9 49.0853C88.9352 48.0595 89.5279 46.6693 89.5513 45.2121L86.5517 45.1639ZM85.7884 46.9542C85.3099 47.4284 84.6648 47.6965 83.9911 47.7012L84.0119 50.7011C85.4692 50.691 86.8647 50.111 87.9 49.0853L85.7884 46.9542ZM83.9911 47.7012C83.3175 47.7058 82.6688 47.4467 82.1837 46.9792L80.1018 49.1392C81.1511 50.1505 82.5545 50.7112 84.0119 50.7011L83.9911 47.7012ZM82.1837 46.9792C81.6987 46.5117 81.4158 45.8729 81.3957 45.1996L78.397 45.2893C78.4406 46.746 79.0525 48.1278 80.1018 49.1392L82.1837 46.9792ZM81.3957 45.1996C81.3854 44.856 81.4439 44.514 81.5676 44.1934L78.7691 43.1127C78.5013 43.8062 78.3748 44.5462 78.397 45.2893L81.3957 45.1996ZM81.5676 44.1934C81.6914 43.8729 81.8781 43.5803 82.1166 43.3328L79.9565 41.2509C79.4406 41.7862 79.0369 42.4192 78.7691 43.1127L81.5676 44.1934ZM82.1166 43.3328C82.355 43.0854 82.6405 42.8882 82.9563 42.7526L81.7733 39.9958C81.0901 40.2889 80.4724 40.7157 79.9565 41.2509L82.1166 43.3328ZM82.9563 42.7526C83.2721 42.6171 83.6118 42.5461 83.9554 42.5437L83.9347 39.5438C83.1913 39.5489 82.4564 39.7026 81.7733 39.9958L82.9563 42.7526ZM83.9554 42.5437C84.2991 42.5413 84.6397 42.6077 84.9574 42.7388L86.1022 39.9658C85.415 39.6821 84.6781 39.5387 83.9347 39.5438L83.9554 42.5437ZM84.9574 42.7388C85.275 42.8699 85.5632 43.0632 85.8051 43.3073L87.9361 41.1957C87.4128 40.6677 86.7893 40.2495 86.1022 39.9658L84.9574 42.7388ZM85.8051 43.3073C86.047 43.5514 86.2376 43.8414 86.3658 44.1602L89.1492 43.0409C88.8718 42.3511 88.4593 41.7238 87.9361 41.1957L85.8051 43.3073ZM86.3658 44.1602C86.494 44.479 86.5572 44.8203 86.5517 45.1639L89.5513 45.2121C89.5633 44.4688 89.4266 43.7306 89.1492 43.0409L86.3658 44.1602ZM107.692 23.5255C96.6525 34.1547 80.3444 34.1217 68.4351 23.5007L66.4383 25.7396C79.4342 37.3297 97.5241 37.4801 109.773 25.6866L107.692 23.5255ZM68.5962 25.5717C71.6471 21.8542 75.5576 18.9359 79.9896 17.0692L78.8251 14.3044C73.944 16.3603 69.6372 19.5743 66.2772 23.6686L68.5962 25.5717ZM78 15.1679C76.9206 18.0955 76.584 20.9276 77.2962 23.5354C78.0157 26.1699 79.752 28.38 82.4431 30.1361L84.0826 27.6237C81.8814 26.1874 80.6803 24.5397 80.1902 22.7451C79.6929 20.9239 79.8747 18.7556 80.8148 16.2057L78 15.1679ZM82.4528 30.1425C84.4242 31.4072 86.7476 32.0099 89.0851 31.863L88.897 28.8689C87.1967 28.9758 85.5067 28.5373 84.0728 27.6174L82.4528 30.1425ZM89.0851 31.863C91.4226 31.7162 93.6523 30.8274 95.4499 29.3259L93.5266 27.0235C92.2191 28.1156 90.5973 28.7621 88.897 28.8689L89.0851 31.863ZM95.4408 29.3334C97.6148 27.5463 99.0129 25.4335 99.5638 23.0153C100.111 20.6123 99.7879 18.0586 98.7917 15.4323L95.9867 16.4962C96.8336 18.7291 97.0217 20.6679 96.6387 22.349C96.2592 24.0148 95.2853 25.5777 93.5357 27.0159L95.4408 29.3334ZM96.7762 17.3333C100.961 19.2073 104.657 22.0229 107.575 25.5605L109.889 23.6516C106.677 19.7575 102.609 16.6581 98.0022 14.5952L96.7762 17.3333ZM90.9385 20.3033C90.9276 20.9769 90.6537 21.6195 90.1751 22.0937L92.2867 24.2247C93.3219 23.1989 93.9147 21.8087 93.9381 20.3516L90.9385 20.3033ZM90.1751 22.0937C89.6966 22.5679 89.0515 22.836 88.3779 22.8406L88.3986 25.8406C89.8559 25.8305 91.2515 25.2505 92.2867 24.2247L90.1751 22.0937ZM88.3779 22.8406C87.7042 22.8453 87.0555 22.5861 86.5704 22.1186L84.4885 24.2787C85.5378 25.29 86.9413 25.8506 88.3986 25.8406L88.3779 22.8406ZM86.5704 22.1186C86.0854 21.6511 85.8025 21.0124 85.7824 20.339L82.7837 20.4287C82.8273 21.8854 83.4392 23.2673 84.4885 24.2787L86.5704 22.1186ZM85.7824 20.339C85.7721 19.9955 85.8306 19.6535 85.9544 19.3329L83.1558 18.2521C82.888 18.9456 82.7615 19.6856 82.7837 20.4287L85.7824 20.339ZM85.9544 19.3329C86.0782 19.0123 86.2648 18.7197 86.5033 18.4723L84.3433 16.3904C83.8274 16.9257 83.4236 17.5586 83.1558 18.2521L85.9544 19.3329ZM86.5033 18.4723C86.7418 18.2249 87.0273 18.0276 87.3431 17.8921L86.16 15.1352C85.4769 15.4284 84.8592 15.8551 84.3433 16.3904L86.5033 18.4723ZM87.3431 17.8921C87.6589 17.7566 87.9986 17.6856 88.3422 17.6832L88.3214 14.6833C87.578 14.6884 86.8432 14.8421 86.16 15.1352L87.3431 17.8921ZM88.3422 17.6832C88.6858 17.6808 89.0264 17.7471 89.3441 17.8783L90.4889 15.1053C89.8017 14.8216 89.0648 14.6781 88.3214 14.6833L88.3422 17.6832ZM89.3441 17.8783C89.6617 18.0094 89.95 18.2027 90.1918 18.4468L92.3228 16.3352C91.7996 15.8071 91.176 15.389 90.4889 15.1053L89.3441 17.8783ZM90.1918 18.4468C90.4337 18.6909 90.6244 18.9809 90.7526 19.2997L93.5359 18.1803C93.2585 17.4906 92.8461 16.8633 92.3228 16.3352L90.1918 18.4468ZM90.7526 19.2997C90.8808 19.6185 90.944 19.9597 90.9385 20.3033L93.9381 20.3516C93.95 19.6083 93.8133 18.8701 93.5359 18.1803L90.7526 19.2997Z" fill="black"/>
</svg>
